<svg width="1024" height="1024" viewBox="0 0 1024 1024" fill="none" xmlns="http://www.w3.org/2000/svg">
  <defs>
    <linearGradient id="bg" x1="160" y1="96" x2="864" y2="928" gradientUnits="userSpaceOnUse">
      <stop stop-color="#2DD4BF"/>
      <stop offset="0.52" stop-color="#14B8A6"/>
      <stop offset="1" stop-color="#0F766E"/>
    </linearGradient>
    <linearGradient id="glow" x1="328" y1="288" x2="704" y2="704" gradientUnits="userSpaceOnUse">
      <stop stop-color="#FFFFFF" stop-opacity="0.32"/>
      <stop offset="1" stop-color="#FFFFFF" stop-opacity="0"/>
    </linearGradient>
  </defs>

  <rect x="96" y="96" width="832" height="832" rx="212" fill="url(#bg)"/>
  <circle cx="512" cy="512" r="248" fill="url(#glow)"/>

  <path
    d="M640 318C594 272 512 252 438 264C370 275 322 317 312 370C302 422 328 469 390 501C425 519 465 528 508 535C549 542 581 550 602 565C625 581 633 603 626 626C619 651 595 671 560 683C496 703 414 690 368 644"
    stroke="white"
    stroke-width="72"
    stroke-linecap="round"
    stroke-linejoin="round"
  />

  <path
    d="M696 716H778"
    stroke="white"
    stroke-width="56"
    stroke-linecap="round"
    stroke-opacity="0.85"
  />
  <path
    d="M246 310H328"
    stroke="white"
    stroke-width="56"
    stroke-linecap="round"
    stroke-opacity="0.85"
  />
</svg>
